<?xml version="1.0" encoding="UTF-8"?>
<!-- Generator: Adobe Illustrator 24.1.2, SVG Export Plug-In . SVG Version: 6.00 Build 0)  -->
<svg xmlns="http://www.w3.org/2000/svg" xmlns:xlink="http://www.w3.org/1999/xlink" version="1.1" id="Layer_1" x="0px" y="0px" viewBox="0 0 594 432" style="enable-background:new 0 0 594 432;" xml:space="preserve">
<style type="text/css">
	.st0{fill:#FFFFFF;}
	.st1{fill:#FFFF00;}
</style>
<path class="st0" d="M198,143.96h8.42l9.48,15.63c2.13,3.63,4.94,9.48,4.94,9.48h0.1c0,0-0.44-6.44-0.44-10.55v-14.56h7.89v36h-8.47  l-9.39-15.43c-2.18-3.63-4.98-9.63-4.98-9.63h-0.1c0,0,0.44,6.48,0.44,10.6v14.47H198V143.96z"></path>
<path class="st0" d="M234.67,162.11c0-10.74,6.92-18.77,17.66-18.77c3.97,0,7.4,0.97,9.87,2.81c3.24,2.37,5.13,5.9,5.56,9.97h-8.23  c-0.48-3.39-3.19-5.9-7.26-5.9c-6.15,0-9.19,5.08-9.19,11.9c0,6.87,3.58,11.85,9.24,11.85c4.4,0,7.11-2.85,7.5-6.58h8.27  c-0.24,3.58-1.89,6.92-4.35,9.34c-2.71,2.66-6.39,4.06-11.42,4.06C241.83,180.79,234.67,172.85,234.67,162.11z"></path>
<path class="st0" d="M274.38,143.96h27v6.87H282.6V158h16.26v6.53H282.6v8.37h19.11v7.06h-27.34V143.96z"></path>
<path class="st0" d="M198,197.96h26.42v7.02h-18.19v7.84h15.19v6.73h-15.19v14.42H198V197.96z"></path>
<path class="st0" d="M229.28,197.96h7.69v7.02h-7.69V197.96z M229.33,208.22h7.6v25.74h-7.6V208.22z"></path>
<path class="st0" d="M379.81,252h7.69v7.02h-7.69V252z M379.86,262.26h7.6V288h-7.6V262.26z"></path>
<path class="st0" d="M251.07,212.14h0.14c1.6-3.1,4.35-4.65,7.94-4.65c5.66,0,8.95,3.77,8.95,9.53v16.93h-7.55v-15.48  c0-2.81-1.5-4.69-4.31-4.69c-2.95,0-4.94,2.37-4.94,5.66v14.52h-7.6v-25.74h7.36V212.14z"></path>
<path class="st0" d="M290.21,230.82h-0.1c-1.69,2.37-3.82,3.82-7.79,3.82c-5.08,0-8.81-2.71-8.81-7.79c0-5.71,4.5-7.16,10.11-7.84  c4.6-0.63,6.48-1.35,6.48-3.29c0-1.84-1.21-3.1-3.82-3.1c-2.9,0-4.31,1.35-4.5,3.39h-7.02c0.19-4.4,3.77-8.52,11.42-8.52  c3.29,0,5.61,0.48,7.4,1.55c2.66,1.55,3.92,4.21,3.92,7.69v13.21c0,2.03,0.29,3.14,0.97,3.58v0.44h-7.4  C290.69,233.38,290.35,232.27,290.21,230.82z M290.3,224.72v-3.34c-1.11,0.68-2.76,1.06-4.45,1.45c-3.34,0.73-4.94,1.55-4.94,3.77  s1.69,3.05,3.77,3.05C288.08,229.66,290.3,227.53,290.3,224.72z"></path>
<path class="st0" d="M311.34,212.14h0.14c1.6-3.1,4.35-4.65,7.94-4.65c5.66,0,8.95,3.77,8.95,9.53v16.93h-7.55v-15.48  c0-2.81-1.5-4.69-4.31-4.69c-2.95,0-4.94,2.37-4.94,5.66v14.52h-7.6v-25.74h7.36V212.14z"></path>
<path class="st0" d="M333.71,221.14c0-7.74,5.27-13.64,13.35-13.64c6.87,0,11.13,3.92,12.05,9.53h-7.35  c-0.53-2.37-2.08-3.87-4.6-3.87c-3.82,0-5.76,3.15-5.76,7.98c0,4.69,1.94,7.89,5.76,7.89c2.81,0,4.5-1.69,4.84-4.64h7.31  c-0.24,5.85-4.89,10.4-12.05,10.4C339.04,234.79,333.71,228.83,333.71,221.14z"></path>
<path class="st0" d="M364.66,221.14c0-7.74,5.37-13.64,13.21-13.64c3.68,0,6.58,1.21,8.85,3.29c2.9,2.81,4.21,7.16,4.16,12.24  h-18.77c0.48,3.87,2.56,6.19,6.24,6.19c2.37,0,3.87-0.92,4.69-2.52h7.35c-1.31,4.55-5.52,8.03-12.15,8.03  C369.83,234.74,364.66,228.83,364.66,221.14z M372.16,218.62h10.98c-0.24-3.58-2.27-5.76-5.27-5.76  C374.38,212.87,372.64,215.09,372.16,218.62z"></path>
<path class="st0" d="M198,251.99h8.27v36H198V251.99z"></path>
<path class="st0" d="M219.96,266.17h0.14c1.6-3.1,4.35-4.65,7.94-4.65c5.66,0,8.95,3.77,8.95,9.53v16.93h-7.55v-15.48  c0-2.81-1.5-4.69-4.31-4.69c-2.95,0-4.94,2.37-4.94,5.66v14.52h-7.6v-25.74h7.36V266.17z"></path>
<path class="st0" d="M251.05,266.17h0.14c1.6-3.1,4.35-4.65,7.94-4.65c5.66,0,8.95,3.77,8.95,9.53v16.93h-7.55v-15.48  c0-2.81-1.5-4.69-4.31-4.69c-2.95,0-4.94,2.37-4.94,5.66v14.52h-7.6v-25.74h7.36V266.17z"></path>
<path class="st0" d="M273.43,275.17c0-7.74,5.42-13.64,13.64-13.64c8.18,0,13.55,5.9,13.55,13.64c0,7.69-5.37,13.65-13.55,13.65  C278.84,288.81,273.43,282.86,273.43,275.17z M292.92,275.17c0-4.89-2.13-8.23-5.9-8.23c-3.87,0-5.9,3.34-5.9,8.23  c0,4.84,2.03,8.13,5.9,8.13C290.8,283.3,292.92,280.01,292.92,275.17z"></path>
<path class="st0" d="M302.7,262.25h7.84l3.15,10.35c1.06,3.44,2.03,9,2.03,9h0.14c0,0,0.97-5.56,2.03-9l3.24-10.35h7.64l-9,25.74  h-8.18L302.7,262.25z"></path>
<path class="st0" d="M347.24,284.85h-0.1c-1.69,2.37-3.82,3.82-7.79,3.82c-5.08,0-8.81-2.71-8.81-7.79c0-5.71,4.5-7.16,10.11-7.84  c4.6-0.63,6.48-1.35,6.48-3.29c0-1.84-1.21-3.1-3.82-3.1c-2.9,0-4.31,1.35-4.5,3.39h-7.02c0.19-4.4,3.77-8.52,11.42-8.52  c3.29,0,5.61,0.48,7.4,1.55c2.66,1.55,3.92,4.21,3.92,7.69v13.21c0,2.03,0.29,3.14,0.97,3.58v0.44h-7.4  C347.73,287.41,347.39,286.3,347.24,284.85z M347.34,278.75v-3.34c-1.11,0.68-2.76,1.06-4.45,1.45c-3.34,0.73-4.94,1.55-4.94,3.77  s1.69,3.05,3.77,3.05C345.11,283.69,347.34,281.56,347.34,278.75z"></path>
<path class="st0" d="M357.91,262.25h3.87v-8.23h7.45v8.23h5.03v4.84h-5.03v12.77c0,1.94,1.06,2.47,2.86,2.47  c0.48,0,1.26-0.05,1.74-0.1h0.39v5.66c-0.82,0.15-2.37,0.39-4.4,0.39c-4.79,0-8.03-1.55-8.03-6.77v-14.42h-3.87V262.25z"></path>
<path class="st0" d="M392.87,275.17c0-7.74,5.42-13.64,13.64-13.64c8.18,0,13.55,5.9,13.55,13.64c0,7.69-5.37,13.65-13.55,13.65  C398.29,288.81,392.87,282.86,392.87,275.17z M412.37,275.17c0-4.89-2.13-8.23-5.9-8.23c-3.87,0-5.9,3.34-5.9,8.23  c0,4.84,2.03,8.13,5.9,8.13C410.24,283.3,412.37,280.01,412.37,275.17z"></path>
<path class="st0" d="M432.97,266.17h0.14c1.6-3.1,4.35-4.65,7.94-4.65c5.66,0,8.95,3.77,8.95,9.53v16.93h-7.55v-15.48  c0-2.81-1.5-4.69-4.31-4.69c-2.95,0-4.94,2.37-4.94,5.66v14.52h-7.6v-25.74h7.36V266.17z"></path>
<polygon class="st1" points="180,287.96 144,287.96 180,251.96 "></polygon>
<polygon class="st1" points="180,233.96 144,233.96 180,197.96 "></polygon>
<polygon class="st1" points="180,179.96 144,179.96 180,143.96 "></polygon>
<g>
	<path class="st0" d="M198,306h1.71l4.88,7.46c0.58,0.88,1.33,2.37,1.33,2.37h0.05c0,0-0.11-1.55-0.11-2.54V306h1.54v11.91h-1.7   l-4.87-7.46c-0.58-0.9-1.36-2.35-1.36-2.35h-0.03c0,0,0.1,1.55,0.1,2.51v7.3H198V306z"></path>
	<path class="st0" d="M210.03,313.62c0-2.5,1.62-4.51,4.21-4.51c2.59,0,4.18,2.02,4.18,4.51c0,2.51-1.58,4.53-4.18,4.53   C211.65,318.15,210.03,316.13,210.03,313.62z M216.9,313.62c0-1.86-0.91-3.33-2.67-3.33s-2.67,1.47-2.67,3.33   c0,1.86,0.91,3.31,2.67,3.31S216.9,315.47,216.9,313.62z"></path>
	<path class="st0" d="M222.32,310.86h0.05c0.53-0.99,1.41-1.66,2.54-1.66c0.24,0,0.38,0.03,0.54,0.1v1.41h-0.05   c-0.21-0.06-0.35-0.08-0.61-0.08c-1.33,0-2.46,0.99-2.46,2.61v4.67h-1.49v-8.6h1.47V310.86z"></path>
	<path class="st0" d="M226.89,309.31h1.58l1.34,4.77c0.27,0.98,0.56,2.51,0.56,2.51h0.03c0,0,0.29-1.44,0.58-2.48l1.3-4.8h1.41   l1.28,4.8c0.24,0.91,0.54,2.5,0.54,2.5h0.03c0,0,0.24-1.47,0.56-2.53l1.42-4.77h1.54l-2.8,8.6h-1.49l-1.26-4.74   c-0.21-0.83-0.54-2.4-0.54-2.4h-0.03c0,0-0.32,1.58-0.53,2.4l-1.3,4.74h-1.5L226.89,309.31z"></path>
	<path class="st0" d="M240.48,313.62c0-2.5,1.65-4.51,4.11-4.51c1.28,0,2.27,0.5,2.95,1.33c0.7,0.85,1.06,2.08,1.06,3.54H242   c0.11,1.68,1.02,2.96,2.69,2.96c1.18,0,2-0.56,2.27-1.47h1.46c-0.38,1.6-1.76,2.69-3.75,2.69   C242.03,318.15,240.48,316.13,240.48,313.62z M242.03,312.9h4.98c-0.08-1.65-0.93-2.64-2.42-2.64   C243.04,310.26,242.22,311.38,242.03,312.9z"></path>
	<path class="st0" d="M250.96,318.5h1.39c0.13,0.9,0.99,1.26,2.27,1.26c1.54,0,2.38-0.69,2.38-2.14v-0.24c0-0.5,0.02-0.96,0.03-1.23   h-0.03c-0.59,0.85-1.34,1.38-2.56,1.38c-2.19,0-3.76-1.71-3.76-4.21c0-2.64,1.66-4.21,3.68-4.21c1.23,0,2.06,0.48,2.61,1.34h0.03   v-1.14h1.47v8.24c0,1.14-0.38,1.99-1.04,2.55c-0.67,0.56-1.63,0.82-2.79,0.82C252.4,320.92,251.12,320.02,250.96,318.5z    M257.1,313.25c0-1.81-0.82-2.91-2.53-2.91c-1.57,0-2.37,1.18-2.37,2.99c0,1.83,0.83,2.98,2.38,2.98   C256.46,316.31,257.1,314.99,257.1,313.25z"></path>
	<path class="st0" d="M261.36,306h1.55v1.73h-1.55V306z M261.39,309.31h1.49v8.6h-1.49V309.31z"></path>
	<path class="st0" d="M265.42,315.63c0-2,1.47-2.43,3.7-2.71c1.26-0.14,2.08-0.35,2.08-1.23c0-0.93-0.66-1.5-1.84-1.5   c-1.36,0-2.02,0.64-2.06,1.66h-1.44c0.06-1.46,1.17-2.75,3.49-2.75c0.82,0,1.54,0.14,2.08,0.46c0.72,0.43,1.15,1.18,1.15,2.34v4.02   c0,0.69,0.16,1.06,0.91,0.9h0.06v1.04c-0.21,0.06-0.45,0.13-0.8,0.13c-0.91,0-1.36-0.43-1.52-1.34h-0.02   c-0.54,0.75-1.42,1.44-2.88,1.44C266.7,318.08,265.42,317.28,265.42,315.63z M271.22,314.74v-1.41c-0.43,0.27-1.18,0.48-1.89,0.61   c-1.41,0.24-2.34,0.5-2.34,1.68c0,1.1,0.85,1.38,1.71,1.38C270.42,317,271.22,315.73,271.22,314.74z"></path>
	<path class="st0" d="M277.09,310.53h0.05c0.62-0.86,1.47-1.42,2.72-1.42c1.79,0,2.9,1.01,2.9,2.8v6h-1.47v-5.83   c0-1.1-0.72-1.73-1.89-1.73c-1.33,0-2.29,0.94-2.29,2.32v5.23h-1.49v-8.6h1.47V310.53z"></path>
	<path class="st0" d="M290.46,311.95c0-3.51,2.11-6.21,5.65-6.21c1.39,0,2.51,0.4,3.31,1.06c0.85,0.69,1.36,1.67,1.52,2.8h-1.63   c-0.27-1.46-1.41-2.43-3.23-2.43c-2.53,0-3.95,2.05-3.95,4.79c0,2.85,1.57,4.77,3.97,4.77c2.16,0,3.2-1.46,3.35-3.15h1.63   c-0.02,1.18-0.58,2.5-1.42,3.31c-0.83,0.83-2.05,1.26-3.58,1.26C292.67,318.15,290.46,315.55,290.46,311.95z"></path>
	<path class="st0" d="M303.18,313.62c0-2.5,1.65-4.51,4.11-4.51c1.28,0,2.27,0.5,2.95,1.33c0.7,0.85,1.06,2.08,1.06,3.54h-6.59   c0.11,1.68,1.02,2.96,2.69,2.96c1.18,0,2-0.56,2.27-1.47h1.46c-0.38,1.6-1.76,2.69-3.75,2.69   C304.73,318.15,303.18,316.13,303.18,313.62z M304.73,312.9h4.98c-0.08-1.65-0.93-2.64-2.42-2.64   C305.74,310.26,304.93,311.38,304.73,312.9z"></path>
	<path class="st0" d="M315.2,310.53h0.05c0.62-0.86,1.47-1.42,2.72-1.42c1.79,0,2.9,1.01,2.9,2.8v6h-1.47v-5.83   c0-1.1-0.72-1.73-1.89-1.73c-1.33,0-2.29,0.94-2.29,2.32v5.23h-1.49v-8.6h1.47V310.53z"></path>
	<path class="st0" d="M323.02,309.31h1.34v-2.71h1.47v2.71h1.78v1.15h-1.78v5.43c0,0.62,0.34,0.8,0.88,0.8   c0.26,0,0.59-0.06,0.75-0.11h0.05v1.25c-0.4,0.1-0.82,0.14-1.2,0.14c-1.15-0.02-1.95-0.48-1.95-1.75v-5.76h-1.34V309.31z"></path>
	<path class="st0" d="M331.49,310.86h0.05c0.53-0.99,1.41-1.66,2.55-1.66c0.24,0,0.38,0.03,0.54,0.1v1.41h-0.05   c-0.21-0.06-0.35-0.08-0.61-0.08c-1.33,0-2.46,0.99-2.46,2.61v4.67h-1.49v-8.6h1.47V310.86z"></path>
	<path class="st0" d="M336.14,313.62c0-2.5,1.65-4.51,4.11-4.51c1.28,0,2.27,0.5,2.95,1.33c0.7,0.85,1.06,2.08,1.06,3.54h-6.59   c0.11,1.68,1.02,2.96,2.69,2.96c1.18,0,2-0.56,2.27-1.47h1.46c-0.38,1.6-1.76,2.69-3.75,2.69   C337.69,318.15,336.14,316.13,336.14,313.62z M337.69,312.9h4.98c-0.08-1.65-0.93-2.64-2.42-2.64   C338.7,310.26,337.89,311.38,337.69,312.9z"></path>
	<path class="st0" d="M351.33,313.62c0-2.5,1.62-4.51,4.21-4.51c2.59,0,4.18,2.02,4.18,4.51c0,2.51-1.58,4.53-4.18,4.53   C352.94,318.15,351.33,316.13,351.33,313.62z M358.19,313.62c0-1.86-0.91-3.33-2.67-3.33s-2.67,1.47-2.67,3.33   c0,1.86,0.91,3.31,2.67,3.31S358.19,315.47,358.19,313.62z"></path>
	<path class="st0" d="M361.45,309.31h1.33v-1.18c0-0.8,0.21-1.36,0.61-1.71c0.42-0.35,1.06-0.5,1.89-0.5c0.22,0,0.5,0.02,0.77,0.03   v1.23c-1.41-0.1-1.78,0.13-1.78,1.01v1.12h1.76v1.17h-1.76v7.43h-1.49v-7.43h-1.33V309.31z"></path>
	<path class="st0" d="M373.74,306h8.47v1.44h-6.83v3.6h6.18v1.36h-6.18v4.02h7.01v1.49h-8.64V306z"></path>
	<path class="st0" d="M387.57,313.41l-2.87-4.1h1.73l1.28,1.97c0.27,0.43,0.69,1.18,0.69,1.18h0.03c0,0,0.43-0.77,0.7-1.18   l1.33-1.97h1.62l-2.8,3.95l3.31,4.64h-1.73l-1.65-2.43c-0.32-0.46-0.78-1.3-0.78-1.3h-0.03c0,0-0.46,0.83-0.77,1.3l-1.63,2.43   h-1.66L387.57,313.41z"></path>
	<path class="st0" d="M394.78,309.31h1.47v1.34h0.05c0.64-0.98,1.5-1.55,2.74-1.55c2.19,0,3.7,1.7,3.7,4.53   c0,2.75-1.42,4.53-3.75,4.53c-1.17,0-2.11-0.48-2.71-1.39h-0.05c0.02,0.3,0.03,0.78,0.03,1.44v2.61h-1.49V309.31z M401.21,313.67   c0-1.89-0.78-3.3-2.37-3.3c-1.82,0-2.66,1.47-2.66,3.3c0,1.81,0.74,3.27,2.64,3.27C400.41,316.93,401.21,315.54,401.21,313.67z"></path>
	<path class="st0" d="M404.7,313.62c0-2.5,1.65-4.51,4.11-4.51c1.28,0,2.27,0.5,2.95,1.33c0.7,0.85,1.06,2.08,1.06,3.54h-6.59   c0.11,1.68,1.02,2.96,2.69,2.96c1.18,0,2-0.56,2.27-1.47h1.46c-0.38,1.6-1.76,2.69-3.75,2.69   C406.25,318.15,404.7,316.13,404.7,313.62z M406.25,312.9h4.98c-0.08-1.65-0.93-2.64-2.42-2.64   C407.26,310.26,406.44,311.38,406.25,312.9z"></path>
	<path class="st0" d="M416.72,310.86h0.05c0.53-0.99,1.41-1.66,2.54-1.66c0.24,0,0.38,0.03,0.54,0.1v1.41h-0.05   c-0.21-0.06-0.35-0.08-0.61-0.08c-1.33,0-2.46,0.99-2.46,2.61v4.67h-1.49v-8.6h1.47V310.86z"></path>
	<path class="st0" d="M421.63,309.31h1.34v-2.71h1.47v2.71h1.78v1.15h-1.78v5.43c0,0.62,0.34,0.8,0.88,0.8   c0.26,0,0.59-0.06,0.75-0.11h0.05v1.25c-0.4,0.1-0.82,0.14-1.2,0.14c-1.15-0.02-1.95-0.48-1.95-1.75v-5.76h-1.34V309.31z"></path>
	<path class="st0" d="M428.59,306h1.55v1.73h-1.55V306z M428.62,309.31h1.49v8.6h-1.49V309.31z"></path>
	<path class="st0" d="M432.46,315.3h1.5c0.18,1.25,1.14,1.67,2.37,1.67c1.36,0,1.94-0.59,1.94-1.36c0-0.94-0.72-1.18-2.24-1.49   c-1.68-0.35-3.2-0.7-3.2-2.59c0-1.47,1.15-2.4,3.15-2.4c2.16,0,3.23,1.01,3.42,2.5h-1.49c-0.13-0.88-0.74-1.38-1.97-1.38   c-1.17,0-1.67,0.54-1.67,1.2c0,0.9,0.83,1.07,2.29,1.36c1.71,0.34,3.19,0.72,3.19,2.72c0,1.74-1.44,2.64-3.46,2.64   C433.93,318.16,432.59,317.04,432.46,315.3z"></path>
	<path class="st0" d="M441.9,313.62c0-2.5,1.65-4.51,4.11-4.51c1.28,0,2.27,0.5,2.95,1.33c0.7,0.85,1.06,2.08,1.06,3.54h-6.59   c0.11,1.68,1.02,2.96,2.69,2.96c1.18,0,2-0.56,2.27-1.47h1.46c-0.38,1.6-1.76,2.69-3.75,2.69   C443.45,318.15,441.9,316.13,441.9,313.62z M443.45,312.9h4.98c-0.08-1.65-0.93-2.64-2.42-2.64   C444.46,310.26,443.64,311.38,443.45,312.9z"></path>
</g>
</svg>
